<?xml version="1.0" encoding="UTF-8" standalone="no"?>
<!-- Created with Inkscape (http://www.inkscape.org/) -->

<svg
   xmlns:dc="http://purl.org/dc/elements/1.1/"
   xmlns:cc="http://creativecommons.org/ns#"
   xmlns:rdf="http://www.w3.org/1999/02/22-rdf-syntax-ns#"
   xmlns:svg="http://www.w3.org/2000/svg"
   xmlns="http://www.w3.org/2000/svg"
   xmlns:sodipodi="http://sodipodi.sourceforge.net/DTD/sodipodi-0.dtd"
   xmlns:inkscape="http://www.inkscape.org/namespaces/inkscape"
   width="50"
   height="50"
   viewBox="0 0 13.229167 13.229167"
   version="1.1"
   id="svg1545"
   inkscape:version="0.92.4 (5da689c313, 2019-01-14)"
   sodipodi:docname="shop.svg">
  <defs
     id="defs1539" />
  <sodipodi:namedview
     id="base"
     pagecolor="#ffffff"
     bordercolor="#666666"
     borderopacity="1.0"
     inkscape:pageopacity="0.0"
     inkscape:pageshadow="2"
     inkscape:zoom="5.6"
     inkscape:cx="18.246122"
     inkscape:cy="44.175437"
     inkscape:document-units="px"
     inkscape:current-layer="layer1"
     showgrid="false"
     inkscape:pagecheckerboard="true"
     units="px"
     inkscape:window-width="1366"
     inkscape:window-height="705"
     inkscape:window-x="-8"
     inkscape:window-y="-8"
     inkscape:window-maximized="1" />
  <metadata
     id="metadata1542">
    <rdf:RDF>
      <cc:Work
         rdf:about="">
        <dc:format>image/svg+xml</dc:format>
        <dc:type
           rdf:resource="http://purl.org/dc/dcmitype/StillImage" />
        <dc:title></dc:title>
      </cc:Work>
    </rdf:RDF>
  </metadata>
  <g
     inkscape:label="Layer 1"
     inkscape:groupmode="layer"
     id="layer1"
     transform="translate(0,-283.77083)">
    <g
       id="g2112">
      <path
         id="rect2090"
         transform="matrix(0.26458334,0,0,0.26458334,0,283.77083)"
         d="M 7.5 18.427734 L 7.5 46.427734 L 42.5 46.427734 L 42.5 18.427734 L 7.5 18.427734 z M 13 20 A 2.4999994 2.4999987 0 0 1 15.5 22.5 A 2.4999994 2.4999987 0 0 1 13 25 A 2.4999994 2.4999987 0 0 1 10.5 22.5 A 2.4999994 2.4999987 0 0 1 13 20 z M 37 20 A 2.4999994 2.4999987 0 0 1 39.5 22.5 A 2.4999994 2.4999987 0 0 1 37 25 A 2.4999994 2.4999987 0 0 1 34.5 22.5 A 2.4999994 2.4999987 0 0 1 37 20 z "
         style="opacity:1;fill:#ffffff;fill-opacity:1;stroke:#ffffff;stroke-width:0;stroke-linecap:square;stroke-linejoin:miter;stroke-miterlimit:4;stroke-dasharray:none;stroke-opacity:1;paint-order:fill markers stroke" />
      <path
         sodipodi:open="true"
         d="m 3.42594,289.23676 a 3.1886435,3.5991614 0 0 1 3.1886436,-3.59917 3.1886435,3.5991614 0 0 1 3.1886433,3.59917"
         sodipodi:end="0"
         sodipodi:start="3.1415927"
         sodipodi:ry="3.5991614"
         sodipodi:rx="3.1886435"
         sodipodi:cy="289.23676"
         sodipodi:cx="6.6145835"
         sodipodi:type="arc"
         id="path2092"
         style="opacity:1;fill:none;fill-opacity:1;stroke:#ffffff;stroke-width:0.50191462;stroke-linecap:round;stroke-linejoin:miter;stroke-miterlimit:4;stroke-dasharray:none;stroke-opacity:1;paint-order:fill markers stroke" />
    </g>
  </g>
</svg>
